<svg xmlns="http://www.w3.org/2000/svg" width="84" height="324" viewBox="0 0 84 324" version="1.1">
	<path d="M 23.213 143.315 C 13.746 152.838, 6 161.131, 6 161.743 C 6 163.175, 8.813 166, 10.239 166 C 10.841 166, 17.334 160.059, 24.667 152.798 L 38 139.595 38 199.226 C 38 252.103, 38.178 259.035, 39.571 260.429 C 40.436 261.293, 41.529 262, 42 262 C 42.471 262, 43.564 261.293, 44.429 260.429 C 45.822 259.035, 46 252.103, 46 199.226 L 46 139.595 59.333 152.798 C 66.666 160.059, 73.159 166, 73.761 166 C 75.187 166, 78 163.175, 78 161.743 C 78 159.994, 43.761 126, 42 126 C 41.134 126, 32.680 133.792, 23.213 143.315 " stroke="none" fill="#1565c0" fill-rule="evenodd"/>
</svg>