<svg xmlns="http://www.w3.org/2000/svg" width="148" height="324" viewBox="0 0 148 324" version="1.1">
	<path d="M 23.315 175.213 C 13.792 184.680, 6 193.134, 6 194 C 6 195.761, 39.994 230, 41.743 230 C 43.175 230, 46 227.187, 46 225.761 C 46 225.159, 40.063 218.670, 32.806 211.341 L 19.611 198.016 79.447 197.758 C 135.182 197.518, 139.358 197.380, 140.386 195.750 C 141.191 194.474, 141.191 193.526, 140.386 192.250 C 139.358 190.620, 135.182 190.482, 79.447 190.242 L 19.611 189.984 32.806 176.659 C 40.063 169.330, 46 162.841, 46 162.239 C 46 160.813, 43.175 158, 41.743 158 C 41.131 158, 32.838 165.746, 23.315 175.213 " stroke="none" fill="#1565c0" fill-rule="evenodd"/>
</svg>