<svg xmlns="http://www.w3.org/2000/svg" width="148" height="324" viewBox="0 0 148 324" version="1.1">
    <path d="M 23.315,175.213 C 13.792,184.68 6,193.134 6,194 c 0,1.761 33.994,36 35.743,36 1.432,0 4.257,-2.813 4.257,-4.239 0,-0.602 -5.937,-7.091 -13.194,-14.42 l -13.195,-13.325 59.836,-0.258 c 55.735,-0.24 59.911,-0.378 60.939,-2.008 0.805,-1.276 1.53308,-35.59435 0.72808,-36.87035 -1.028,-1.63 -7.0242,-7.10725 -7.66779,31.4837 L 19.611,189.984 32.806,176.659 C 40.063,169.33 46,162.841 46,162.239 46,160.813 43.175,158 41.743,158 c -0.612,0 -8.905,7.746 -18.428,17.213" stroke="none" fill="#1565c0" fill-rule="evenodd"/>
</svg>