<svg xmlns="http://www.w3.org/2000/svg" width="84" height="324" viewBox="0 0 84 324" version="1.1">
	<path d="M 23.213 143.315 C 13.746 152.838, 6 161.131, 6 161.743 C 6 163.175, 8.813 166, 10.239 166 C 10.841 166, 17.334 160.059, 24.667 152.798 L 38 139.595 38 199.226 C 38 252.103, 38.178 259.035, 39.571 260.429 C 40.436 261.293, 41.529 262, 42 262 C 42.471 262, 43.564 261.293, 44.429 260.429 C 45.822 259.035, 46 252.103, 46 199.226 L 46 139.595 59.333 152.798 C 66.666 160.059, 73.159 166, 73.761 166 C 75.187 166, 78 163.175, 78 161.743 C 78 159.994, 43.761 126, 42 126 C 41.134 126, 32.680 133.792, 23.213 143.315 " stroke="none" fill="#1565c0" fill-rule="evenodd"/>
	<path d="M 13 223.752 C 7.120 226.689, 4.169 235.700, 8.538 237.376 C 11.003 238.322, 12.959 236.938, 13.813 233.643 C 14.493 231.017, 15.111 230.500, 17.564 230.500 C 22.679 230.500, 21.846 233.744, 13.522 246.242 C 3.514 261.270, 3.932 262.378, 19.398 261.797 C 25.614 261.563, 27.523 261.128, 28.390 259.750 C 30.337 256.653, 27.964 254.539, 22.156 254.198 L 17.018 253.896 23.009 244.986 C 26.304 240.086, 28.998 235.047, 28.996 233.788 C 28.990 230.159, 25.265 225.009, 21.510 223.440 C 17.203 221.640, 17.228 221.639, 13 223.752 " stroke="none" fill="#1565c0" fill-rule="evenodd"/>
</svg>