<svg xmlns="http://www.w3.org/2000/svg" width="84" height="324" viewBox="0 0 84 324" version="1.1">
	<path d="M 23.213 143.315 C 13.746 152.838, 6 161.131, 6 161.743 C 6 163.175, 8.813 166, 10.239 166 C 10.841 166, 17.334 160.059, 24.667 152.798 L 38 139.595 38 199.226 C 38 252.103, 38.178 259.035, 39.571 260.429 C 40.436 261.293, 41.529 262, 42 262 C 42.471 262, 43.564 261.293, 44.429 260.429 C 45.822 259.035, 46 252.103, 46 199.226 L 46 139.595 59.333 152.798 C 66.666 160.059, 73.159 166, 73.761 166 C 75.187 166, 78 163.175, 78 161.743 C 78 159.994, 43.761 126, 42 126 C 41.134 126, 32.680 133.792, 23.213 143.315 " stroke="none" fill="#1565c0" fill-rule="evenodd"/>
	<path d="M 13 223.752 C 7.120 226.689, 4.169 235.700, 8.538 237.376 C 11.003 238.322, 12.959 236.938, 13.813 233.643 C 14.493 231.017, 15.111 230.500, 17.564 230.500 C 20.031 230.500, 20.551 230.944, 20.819 233.278 C 21.086 235.597, 20.638 236.230, 18.110 237.112 C 12.852 238.945, 12.875 244.063, 18.149 245.902 C 20.637 246.769, 21.085 247.410, 20.819 249.722 C 20.567 251.920, 19.920 252.567, 17.722 252.819 C 15.410 253.085, 14.769 252.637, 13.902 250.149 C 12.794 246.972, 10.905 245.715, 8.577 246.609 C 4.288 248.255, 7.281 256.416, 13.244 259.330 C 16.390 260.867, 17.546 260.975, 20.478 260.007 C 22.398 259.374, 24.876 257.702, 25.984 256.293 C 28.365 253.266, 28.693 246.434, 26.600 243.446 C 25.400 241.733, 25.400 241.174, 26.600 239.532 C 28.498 236.936, 28.369 229.972, 26.369 227.117 C 24.936 225.071, 19.476 221.997, 17.282 222.002 C 16.852 222.002, 14.925 222.790, 13 223.752 " stroke="none" fill="#1565c0" fill-rule="evenodd"/>
</svg>