<svg>
  <symbol id="2100" viewBox="0 0 148 324">
    <path d="M 23.315 175.213 C 13.792 184.680, 6 193.134, 6 194 C 6 195.761, 39.994 230, 41.743 230 C 43.175 230, 46 227.187, 46 225.761 C 46 225.159, 40.063 218.670, 32.806 211.341 L 19.611 198.016 79.447 197.758 C 135.182 197.518, 139.358 197.380, 140.386 195.750 C 141.191 194.474, 141.191 193.526, 140.386 192.250 C 139.358 190.620, 135.182 190.482, 79.447 190.242 L 19.611 189.984 32.806 176.659 C 40.063 169.330, 46 162.841, 46 162.239 C 46 160.813, 43.175 158, 41.743 158 C 41.131 158, 32.838 165.746, 23.315 175.213" fill="#1565c0" fill-rule="evenodd" />
  </symbol>
  <symbol id="2101" viewBox="0 0 148 324">
    <path d="M 23.315,175.213 C 13.792,184.68 6,193.134 6,194 c 0,1.761 33.994,36 35.743,36 1.432,0 4.257,-2.813 4.257,-4.239 0,-0.602 -5.937,-7.091 -13.194,-14.42 l -13.195,-13.325 59.836,-0.258 c 55.735,-0.24 59.911,-0.378 60.939,-2.008 0.805,-1.276 1.53308,-35.59435 0.72808,-36.87035 -1.028,-1.63 -7.0242,-7.10725 -7.66779,31.4837 L 19.611,189.984 32.806,176.659 C 40.063,169.33 46,162.841 46,162.239 46,160.813 43.175,158 41.743,158 c -0.612,0 -8.905,7.746 -18.428,17.213" fill="#1565c0" fill-rule="evenodd" />
  </symbol>
  <symbol id="2200" viewBox="0 0 84 324">
    <path d="M 23.213 143.315 C 13.746 152.838, 6 161.131, 6 161.743 C 6 163.175, 8.813 166, 10.239 166 C 10.841 166, 17.334 160.059, 24.667 152.798 L 38 139.595 38 199.226 C 38 252.103, 38.178 259.035, 39.571 260.429 C 40.436 261.293, 41.529 262, 42 262 C 42.471 262, 43.564 261.293, 44.429 260.429 C 45.822 259.035, 46 252.103, 46 199.226 L 46 139.595 59.333 152.798 C 66.666 160.059, 73.159 166, 73.761 166 C 75.187 166, 78 163.175, 78 161.743 C 78 159.994, 43.761 126, 42 126 C 41.134 126, 32.680 133.792, 23.213 143.315" fill="#1565c0" fill-rule="evenodd" />
  </symbol>
  <symbol id="2201" viewBox="0 0 148 324">
    <path d="m 7.571,225.571 c -1.396,1.397 -1.4736442,29.6463 -1.571,32.8 -0.052321,1.69487 0.291,1.52 1.2,2.429 1.407,1.407 130.389,1.747 132.592,0.35 1.035,-0.657 1.229,-0.719 1.229,-0.719 -0.066,-3.20221 1.08545,-37.55927 -4.904,-35.493 L 134,226.07 V 257.035 254 H 74 14 v 1.571 c 0,0.51035 -0.176,-28.605 -1.571,-30 C 11.564,224.707 10.471,224 10,224 c -0.471,0 -1.564,0.707 -2.429,1.571" fill="#1565c0" fill-rule="evenodd" />
  </symbol>
</svg>