<svg>
  <symbol id="2001" viewBox="0 0 84 324">
    <path d="M 23.213 143.315 C 13.746 152.838, 6 161.131, 6 161.743 C 6 163.175, 8.813 166, 10.239 166 C 10.841 166, 17.334 160.059, 24.667 152.798 L 38 139.595 38 199.226 C 38 252.103, 38.178 259.035, 39.571 260.429 C 40.436 261.293, 41.529 262, 42 262 C 42.471 262, 43.564 261.293, 44.429 260.429 C 45.822 259.035, 46 252.103, 46 199.226 L 46 139.595 59.333 152.798 C 66.666 160.059, 73.159 166, 73.761 166 C 75.187 166, 78 163.175, 78 161.743 C 78 159.994, 43.761 126, 42 126 C 41.134 126, 32.680 133.792, 23.213 143.315" fill="#1565c0" fill-rule="evenodd" />
  </symbol>
  <symbol id="2002" viewBox="0 0 84 324">
    <path d="M 23.213 143.315 C 13.746 152.838, 6 161.131, 6 161.743 C 6 163.175, 8.813 166, 10.239 166 C 10.841 166, 17.334 160.059, 24.667 152.798 L 38 139.595 38 199.226 C 38 252.103, 38.178 259.035, 39.571 260.429 C 40.436 261.293, 41.529 262, 42 262 C 42.471 262, 43.564 261.293, 44.429 260.429 C 45.822 259.035, 46 252.103, 46 199.226 L 46 139.595 59.333 152.798 C 66.666 160.059, 73.159 166, 73.761 166 C 75.187 166, 78 163.175, 78 161.743 C 78 159.994, 43.761 126, 42 126 C 41.134 126, 32.680 133.792, 23.213 143.315" fill="#1565c0" fill-rule="evenodd" />
    <path d="m 66.156943,235.65352 c -4.02874,4.26028 -4.233045,4.77284 -2.56205,6.44383 1.333356,1.33264 1.428698,1.34411 3.222276,0.38424 1.323319,-0.70826 1.386402,-0.4466 1.386402,5.73486 0,6.38003 -0.02581,6.47681 -1.741247,6.47681 -1.70182,0 -3.993614,1.64519 -3.993614,2.86743 0,0.33764 0.506818,1.12116 1.126183,1.74125 0.854495,0.85449 2.659542,1.12618 7.476109,1.12618 4.816567,0 6.621614,-0.27169 7.476109,-1.12618 0.619365,-0.62009 1.126183,-1.40361 1.126183,-1.74125 0,-1.22224 -2.291794,-2.86743 -3.993614,-2.86743 h -1.741247 v -10.34354 c 0,-8.44673 -0.206455,-10.54928 -1.126184,-11.46972 -1.77924,-1.77853 -2.721908,-1.38569 -6.655306,2.77352" fill="#1565c0" fill-rule="evenodd" />
  </symbol>
  <symbol id="2003" viewBox="0 0 84 324">
    <path d="M 23.213 143.315 C 13.746 152.838, 6 161.131, 6 161.743 C 6 163.175, 8.813 166, 10.239 166 C 10.841 166, 17.334 160.059, 24.667 152.798 L 38 139.595 38 199.226 C 38 252.103, 38.178 259.035, 39.571 260.429 C 40.436 261.293, 41.529 262, 42 262 C 42.471 262, 43.564 261.293, 44.429 260.429 C 45.822 259.035, 46 252.103, 46 199.226 L 46 139.595 59.333 152.798 C 66.666 160.059, 73.159 166, 73.761 166 C 75.187 166, 78 163.175, 78 161.743 C 78 159.994, 43.761 126, 42 126 C 41.134 126, 32.680 133.792, 23.213 143.315" fill="#1565c0" fill-rule="evenodd" />
    <path d="m 66.156943,232.7412 c -4.362669,2.17911 -6.552165,8.86483 -3.310583,10.10834 1.828908,0.70188 3.280164,-0.32498 3.913789,-2.76971 0.504526,-1.94836 0.963053,-2.33194 2.783057,-2.33194 3.795078,0 3.177032,2.40688 -2.998964,11.67977 -7.425443,11.15005 -7.115307,11.97212 4.359702,11.54105 4.611965,-0.17362 6.028349,-0.49636 6.67162,-1.51877 1.444578,-2.29782 -0.316072,-3.86631 -4.625321,-4.11931 l -3.812142,-0.22407 4.445027,-6.61078 c 2.444726,-3.63556 4.443542,-7.37425 4.442057,-8.30837 -0.0044,-2.69254 -2.768218,-6.51358 -5.554242,-7.6777 -3.195581,-1.33551 -3.177032,-1.33625 -6.314,0.23149" fill="#1565c0" fill-rule="evenodd" />
  </symbol>
  <symbol id="2004" viewBox="0 0 84 324">
    <path d="M 23.213 143.315 C 13.746 152.838, 6 161.131, 6 161.743 C 6 163.175, 8.813 166, 10.239 166 C 10.841 166, 17.334 160.059, 24.667 152.798 L 38 139.595 38 199.226 C 38 252.103, 38.178 259.035, 39.571 260.429 C 40.436 261.293, 41.529 262, 42 262 C 42.471 262, 43.564 261.293, 44.429 260.429 C 45.822 259.035, 46 252.103, 46 199.226 L 46 139.595 59.333 152.798 C 66.666 160.059, 73.159 166, 73.761 166 C 75.187 166, 78 163.175, 78 161.743 C 78 159.994, 43.761 126, 42 126 C 41.134 126, 32.680 133.792, 23.213 143.315" fill="#1565c0" fill-rule="evenodd" />
	<path d="m 65.544978,233.44981 c -4.437907,2.21669 -6.665162,9.01771 -3.367677,10.28266 1.86045,0.71399 3.336732,-0.33058 3.981286,-2.81746 0.513226,-1.98197 0.97966,-2.37217 2.831053,-2.37217 1.861958,0 2.254426,0.33511 2.456698,2.09668 0.201517,1.75026 -0.13661,2.22801 -2.044607,2.89369 -3.968455,1.38346 -3.951096,5.24625 0.02943,6.63422 1.877808,0.65437 2.215933,1.13816 2.015172,2.88313 -0.190196,1.65894 -0.678518,2.14726 -2.337449,2.33745 -1.744973,0.20077 -2.228766,-0.13736 -2.88313,-2.01517 -0.836259,-2.39783 -2.261974,-3.34654 -4.019023,-2.6718 -3.237106,1.24231 -0.978151,7.4018 3.5224,9.60113 2.374431,1.16004 3.246917,1.24156 5.459833,0.51096 1.449113,-0.47776 3.319374,-1.73969 4.155632,-2.80313 1.79705,-2.28462 2.044607,-7.44104 0.464924,-9.69622 -0.905696,-1.29288 -0.905696,-1.71479 0,-2.95408 1.432508,-1.95932 1.335145,-7.21537 -0.174346,-9.37017 -1.081552,-1.54421 -5.202466,-3.8643 -6.858378,-3.86053 -0.324542,0 -1.778937,0.59474 -3.231823,1.32081" fill="#1565c0" fill-rule="evenodd" />
  </symbol>
  <symbol id="2005" viewBox="0 0 148 324">
    <path d="m 7.571,225.571 c -1.396,1.397 -1.4736442,29.6463 -1.571,32.8 -0.052321,1.69487 0.291,1.52 1.2,2.429 1.407,1.407 130.389,1.747 132.592,0.35 1.035,-0.657 1.229,-0.719 1.229,-0.719 -0.066,-3.20221 1.08545,-37.55927 -4.904,-35.493 L 134,226.07 V 257.035 254 H 74 14 v 1.571 c 0,0.51035 -0.176,-28.605 -1.571,-30 C 11.564,224.707 10.471,224 10,224 c -0.471,0 -1.564,0.707 -2.429,1.571" fill="#1565c0" fill-rule="evenodd" />
  </symbol>
  <symbol id="2006" viewBox="0 0 148 324">
    <path d="M 23.315 175.213 C 13.792 184.680, 6 193.134, 6 194 C 6 195.761, 39.994 230, 41.743 230 C 43.175 230, 46 227.187, 46 225.761 C 46 225.159, 40.063 218.670, 32.806 211.341 L 19.611 198.016 79.447 197.758 C 135.182 197.518, 139.358 197.380, 140.386 195.750 C 141.191 194.474, 141.191 193.526, 140.386 192.250 C 139.358 190.620, 135.182 190.482, 79.447 190.242 L 19.611 189.984 32.806 176.659 C 40.063 169.330, 46 162.841, 46 162.239 C 46 160.813, 43.175 158, 41.743 158 C 41.131 158, 32.838 165.746, 23.315 175.213" fill="#1565c0" fill-rule="evenodd" />
  </symbol>
  <symbol id="2007" viewBox="0 0 148 324">
    <path d="M 23.315,175.213 C 13.792,184.68 6,193.134 6,194 c 0,1.761 33.994,36 35.743,36 1.432,0 4.257,-2.813 4.257,-4.239 0,-0.602 -5.937,-7.091 -13.194,-14.42 l -13.195,-13.325 59.836,-0.258 c 55.735,-0.24 59.911,-0.378 60.939,-2.008 0.805,-1.276 1.53308,-35.59435 0.72808,-36.87035 -1.028,-1.63 -7.0242,-7.10725 -7.66779,31.4837 L 19.611,189.984 32.806,176.659 C 40.063,169.33 46,162.841 46,162.239 46,160.813 43.175,158 41.743,158 c -0.612,0 -8.905,7.746 -18.428,17.213" fill="#1565c0" fill-rule="evenodd" />
  </symbol>
</svg>